<?xml version="1.0" encoding="utf-8"?>
<svg version="1.1" id="Layer_1" xmlns="http://www.w3.org/2000/svg" xmlns:xlink="http://www.w3.org/1999/xlink" x="0px" y="0px"
	 viewBox="0 0 30 30" style="enable-background:new 0 0 30 30;" xml:space="preserve">
<path d="M27.45,23.32c-0.82-0.88-2.7-1.83-7.27-3.44c-1.49-0.53-1.5-0.85-1.5-1.97c0-0.12,0-1.47,0-1.47
	c0.56-0.57,0.86-3.03,0.86-3.03c0.5,0.13,1.41-0.76,1.69-1.96c0.28-1.19-0.19-2.25-0.69-2.38c-0.06-0.01,0.17-2.61,0.17-3.76
	c0-1.72-0.52-2.87-2.12-2.87c-0.42-0.7-1.13-1.15-3.04-1.15c-2.02,0-2.93,1.15-4.83,1.15c-0.84,0-1.02,1.37-1.02,2.84
	c0,1.55,0.2,3.77,0.17,3.78c-0.5,0.13-0.97,1.18-0.69,2.38c0.28,1.2,1.2,2.08,1.69,1.96c0,0,0.32,2.46,0.89,3.03c0,0,0,1.3,0,1.47
	c0,1.12-0.02,1.44-1.5,1.97c-4.57,1.61-6.45,2.56-7.27,3.44c-1.13,1.23-1.55,3.58-1.55,5.5h9.75h8.04H29
	C29,26.9,28.59,24.54,27.45,23.32z"/>
</svg>
