<?xml version="1.0" standalone="no"?><!-- Generator: Gravit.io --><svg xmlns="http://www.w3.org/2000/svg" xmlns:xlink="http://www.w3.org/1999/xlink" style="isolation:isolate" viewBox="223.395 185 21.259 20" width="21.259" height="20"><path d=" M 224.913 189 L 243.135 189 C 243.974 189 244.654 188.104 244.654 187 C 244.654 185.896 243.974 185 243.135 185 L 224.913 185 C 224.075 185 223.395 185.896 223.395 187 C 223.395 188.104 224.075 189 224.913 189 Z  M 243.135 193 L 224.913 193 C 224.075 193 223.395 193.896 223.395 195 C 223.395 196.104 224.075 197 224.913 197 L 243.135 197 C 243.974 197 244.654 196.104 244.654 195 C 244.654 193.896 243.974 193 243.135 193 Z  M 243.135 201 L 224.913 201 C 224.075 201 223.395 201.896 223.395 203 C 223.395 204.104 224.075 205 224.913 205 L 243.135 205 C 243.974 205 244.654 204.104 244.654 203 C 244.654 201.896 243.974 201 243.135 201 Z " fill="rgb(0,0,0)"/></svg>