<svg id="Layer_1" xmlns="http://www.w3.org/2000/svg" viewBox="0 0 68 68"><style>.st1{fill:#fff}</style><circle cx="34" cy="34" r="34" fill="#9e39cd"/><path class="st1" d="M34 22.39c3.78 0 4.23.01 5.72.08 1.38.06 2.13.29 2.63.49.66.26 1.13.56 1.63 1.06s.8.97 1.06 1.63c.19.5.42 1.25.49 2.63.07 1.49.08 1.94.08 5.72s-.01 4.23-.08 5.72c-.06 1.38-.29 2.13-.49 2.63-.26.66-.56 1.13-1.06 1.63s-.97.8-1.63 1.06c-.5.19-1.25.42-2.63.49-1.49.07-1.94.08-5.72.08s-4.23-.01-5.72-.08c-1.38-.06-2.13-.29-2.63-.49-.66-.26-1.13-.56-1.63-1.06s-.8-.97-1.06-1.63c-.19-.5-.42-1.25-.49-2.63-.07-1.49-.08-1.94-.08-5.72s.01-4.23.08-5.72c.06-1.38.29-2.13.49-2.63.26-.66.56-1.13 1.06-1.63s.97-.8 1.63-1.06c.5-.19 1.25-.42 2.63-.49 1.49-.07 1.94-.08 5.72-.08m0-2.55c-3.85 0-4.33.02-5.84.09-1.51.07-2.54.31-3.44.66-.93.36-1.72.85-2.51 1.63a6.91 6.91 0 0 0-1.63 2.51c-.35.9-.59 1.93-.66 3.44-.07 1.51-.09 1.99-.09 5.84 0 3.85.02 4.33.09 5.84.07 1.51.31 2.54.66 3.44.36.93.85 1.72 1.63 2.51a6.91 6.91 0 0 0 2.51 1.63c.9.35 1.93.59 3.44.66 1.51.07 1.99.09 5.84.09s4.33-.02 5.84-.09c1.51-.07 2.54-.31 3.44-.66.93-.36 1.72-.85 2.51-1.63a6.91 6.91 0 0 0 1.63-2.51c.35-.9.59-1.93.66-3.44.07-1.51.09-1.99.09-5.84s-.02-4.33-.09-5.84c-.07-1.51-.31-2.54-.66-3.44-.36-.93-.85-1.72-1.63-2.51a6.91 6.91 0 0 0-2.51-1.63c-.9-.35-1.93-.59-3.44-.66-1.51-.08-1.99-.09-5.84-.09z"/><path class="st1" d="M34 26.73c-4.02 0-7.27 3.26-7.27 7.27s3.26 7.27 7.27 7.27 7.27-3.26 7.27-7.27-3.25-7.27-7.27-7.27zm0 11.99c-2.61 0-4.72-2.11-4.72-4.72s2.11-4.72 4.72-4.72 4.72 2.11 4.72 4.72-2.11 4.72-4.72 4.72z"/><circle class="st1" cx="41.56" cy="26.44" r="1.7"/></svg>