<?xml version="1.0" standalone="no"?><svg xmlns="http://www.w3.org/2000/svg" xmlns:xlink="http://www.w3.org/1999/xlink" style="isolation:isolate" viewBox="280 247 829.473 130.084" width="829.473" height="130.084"><path d=" M 361.464 341.457 L 361.464 341.457 L 361.464 341.457 Q 363.878 331.121 349.649 325.65 L 349.649 325.65 L 329.727 318.963 L 329.727 318.963 Q 295.076 305.936 297.352 283.092 L 297.352 283.092 L 297.352 283.092 Q 298.316 272.496 306.089 264.331 L 306.089 264.331 L 306.089 264.331 Q 313.863 256.166 327.693 251.518 L 327.693 251.518 L 327.693 251.518 Q 341.524 246.871 357.431 247.044 L 357.431 247.044 L 357.431 247.044 Q 379.365 247.39 392.65 257.943 L 392.65 257.943 L 392.65 257.943 Q 405.934 268.495 405.331 286.214 L 405.331 286.214 L 374.965 286.215 L 374.965 286.215 Q 375.677 277.616 370.739 272.84 L 370.739 272.84 L 370.739 272.84 Q 365.802 268.063 355.199 267.889 L 355.199 267.889 L 355.199 267.889 Q 344.803 267.716 337.016 271.842 L 337.016 271.842 L 337.016 271.842 Q 329.229 275.968 327.612 283.178 L 327.612 283.178 L 327.612 283.178 Q 325.426 292.645 342.461 298.203 L 342.461 298.203 L 356.091 302.545 L 363.927 305.585 L 363.927 305.585 Q 394.322 318.265 391.836 341.195 L 391.836 341.195 L 391.836 341.195 Q 390.651 352.4 382.826 360.521 L 382.826 360.521 L 382.826 360.521 Q 375.002 368.643 361.75 372.986 L 361.75 372.986 L 361.75 372.986 Q 348.499 377.33 332.698 377.07 L 332.698 377.07 L 332.698 377.07 Q 316.584 376.81 304.121 371.426 L 304.121 371.426 L 304.121 371.426 Q 291.658 366.041 285.325 356.227 L 285.325 356.227 L 285.325 356.227 Q 279.392 347.107 280.069 335.381 L 280.069 335.381 L 310.537 335.466 L 310.537 335.466 Q 308.623 356.052 334.302 356.398 L 334.302 356.398 L 334.302 356.398 Q 345.429 356.397 352.695 352.315 L 352.695 352.315 L 352.695 352.315 Q 359.962 348.232 361.464 341.457 Z  M 554.25 248.771 L 525.229 375.237 L 494.759 375.238 L 507.197 321.039 L 448.441 321.042 L 435.899 375.241 L 405.429 375.243 L 434.555 248.777 L 465.024 248.776 L 453.172 300.022 L 512.032 300.019 L 523.78 248.773 L 554.25 248.771 L 554.25 248.771 Z  M 613.272 376.97 L 613.272 376.97 L 613.272 376.97 Q 598.199 376.71 586.834 371.021 L 586.834 371.021 L 586.834 371.021 Q 575.47 365.333 569.001 354.606 L 569.001 354.606 L 569.001 354.606 Q 562.532 343.88 561.802 329.983 L 561.802 329.983 L 561.802 329.983 Q 560.975 315.738 566.118 299.582 L 566.118 299.582 L 566.118 299.582 Q 571.262 283.427 582.141 271.179 L 582.141 271.179 L 582.141 271.179 Q 593.021 258.932 607.456 252.851 L 607.456 252.851 L 607.456 252.851 Q 621.89 246.771 638.523 247.03 L 638.523 247.03 L 638.523 247.03 Q 653.804 247.29 665.115 253.066 L 665.115 253.066 L 665.115 253.066 Q 676.425 258.841 682.736 269.655 L 682.736 269.655 L 682.736 269.655 Q 689.047 280.468 689.678 294.191 L 689.678 294.191 L 689.678 294.191 Q 690.377 309.478 685.026 325.634 L 685.026 325.634 L 685.026 325.634 Q 679.675 341.79 668.908 353.603 L 668.908 353.603 L 668.908 353.603 Q 658.142 365.416 643.92 371.323 L 643.92 371.323 L 643.92 371.323 Q 629.697 377.23 613.272 376.97 Z  M 657.12 313.215 L 657.953 308.524 L 658.968 300.273 L 658.968 300.273 Q 660.352 284.812 654.551 276.822 L 654.551 276.822 L 654.551 276.822 Q 648.749 268.831 636.59 268.484 L 636.59 268.484 L 636.59 268.484 Q 617.571 267.964 606.066 282.556 L 606.066 282.556 L 606.066 282.556 Q 594.562 297.149 592.523 323.38 L 592.523 323.38 L 592.523 323.38 Q 591.14 338.754 596.883 347.048 L 596.883 347.048 L 596.883 347.048 Q 602.626 355.343 615.098 355.69 L 615.098 355.69 L 615.098 355.69 Q 631.411 356.297 642.373 345.049 L 642.373 345.049 L 642.373 345.049 Q 653.334 333.8 657.12 313.215 L 657.12 313.215 L 657.12 313.215 Z  M 765.714 330.755 L 737.014 330.669 L 726.663 375.227 L 696.193 375.229 L 725.318 248.763 L 778.353 248.848 L 778.353 248.848 Q 802.895 248.847 816.681 260.224 L 816.681 260.224 L 816.681 260.224 Q 830.467 271.602 828.291 289.929 L 828.291 289.929 L 828.291 289.929 Q 826.213 308.516 809.067 319.635 L 809.067 319.635 L 809.067 319.635 Q 791.92 330.754 765.714 330.755 L 765.714 330.755 L 765.714 330.755 Z  M 750.951 269.869 L 741.748 309.563 L 767.118 309.735 L 767.118 309.735 Q 779.389 309.735 787.619 304.436 L 787.619 304.436 L 787.619 304.436 Q 795.848 299.137 797.609 290.104 L 797.609 290.104 L 797.609 290.104 Q 799.37 281.071 794.446 275.686 L 794.446 275.686 L 794.446 275.686 Q 789.522 270.301 779.651 269.954 L 779.651 269.954 L 750.951 269.869 L 750.951 269.869 Z  M 962.438 308.771 L 952.163 359.235 L 952.163 359.235 Q 943.86 367.834 928.106 372.482 L 928.106 372.482 L 928.106 372.482 Q 912.351 377.13 892.703 376.87 L 892.703 376.87 L 892.703 376.87 Q 877.21 376.784 865.583 371.182 L 865.583 371.182 L 865.583 371.182 Q 853.957 365.58 847.431 355.071 L 847.431 355.071 L 847.431 355.071 Q 840.905 344.562 840.269 331.099 L 840.269 331.099 L 840.269 331.099 Q 839.508 318.591 844.096 301.697 L 844.096 301.697 L 844.096 301.697 Q 848.683 284.803 859.21 272.078 L 859.21 272.078 L 859.21 272.078 Q 869.736 259.353 884.228 253.055 L 884.228 253.055 L 884.228 253.055 Q 898.719 246.758 916.184 247.017 L 916.184 247.017 L 916.184 247.017 Q 939.886 247.364 953.061 258.177 L 953.061 258.177 L 953.061 258.177 Q 966.235 268.99 967.658 289.141 L 967.658 289.141 L 938.334 289.055 L 938.334 289.055 Q 937.426 278.459 931.923 273.421 L 931.923 273.421 L 931.923 273.421 Q 926.419 268.384 915.3 268.037 L 915.3 268.037 L 915.3 268.037 Q 896.073 267.517 884.672 282.153 L 884.672 282.153 L 884.672 282.153 Q 873.271 296.789 871.092 324.583 L 871.092 324.583 L 871.092 324.583 Q 869.722 339.436 876.039 347.6 L 876.039 347.6 L 876.039 347.6 Q 882.357 355.764 895.664 355.937 L 895.664 355.937 L 895.664 355.937 Q 911.152 356.284 922.216 349.769 L 922.216 349.769 L 927.797 327.968 L 900.135 327.969 L 904.618 308.773 L 962.438 308.771 L 962.438 308.771 Z  M 1032.987 376.95 L 1032.987 376.95 L 1032.987 376.95 Q 1017.914 376.69 1006.549 371.002 L 1006.549 371.002 L 1006.549 371.002 Q 995.185 365.313 988.716 354.587 L 988.716 354.587 L 988.716 354.587 Q 982.247 343.86 981.517 329.963 L 981.517 329.963 L 981.517 329.963 Q 980.69 315.718 985.833 299.563 L 985.833 299.563 L 985.833 299.563 Q 990.976 283.407 1001.856 271.16 L 1001.856 271.16 L 1001.856 271.16 Q 1012.736 258.912 1027.171 252.832 L 1027.171 252.832 L 1027.171 252.832 Q 1041.605 246.751 1058.238 247.011 L 1058.238 247.011 L 1058.238 247.011 Q 1073.519 247.27 1084.83 253.046 L 1084.83 253.046 L 1084.83 253.046 Q 1096.14 258.821 1102.451 269.635 L 1102.451 269.635 L 1102.451 269.635 Q 1108.762 280.448 1109.392 294.172 L 1109.392 294.172 L 1109.392 294.172 Q 1110.092 309.459 1104.741 325.614 L 1104.741 325.614 L 1104.741 325.614 Q 1099.389 341.77 1088.623 353.583 L 1088.623 353.583 L 1088.623 353.583 Q 1077.857 365.396 1063.634 371.303 L 1063.634 371.303 L 1063.634 371.303 Q 1049.412 377.21 1032.987 376.95 Z  M 1076.835 313.195 L 1077.668 308.505 L 1078.683 300.253 L 1078.683 300.253 Q 1080.067 284.793 1074.266 276.802 L 1074.266 276.802 L 1074.266 276.802 Q 1068.464 268.811 1056.304 268.464 L 1056.304 268.464 L 1056.304 268.464 Q 1037.285 267.944 1025.781 282.537 L 1025.781 282.537 L 1025.781 282.537 Q 1014.277 297.129 1012.237 323.36 L 1012.237 323.36 L 1012.237 323.36 Q 1010.855 338.734 1016.598 347.029 L 1016.598 347.029 L 1016.598 347.029 Q 1022.341 355.323 1034.813 355.67 L 1034.813 355.67 L 1034.813 355.67 Q 1051.126 356.277 1062.087 345.029 L 1062.087 345.029 L 1062.087 345.029 Q 1073.049 333.78 1076.835 313.195 L 1076.835 313.195 L 1076.835 313.195 Z " fill-rule="evenodd" fill="rgb(0,0,0)"/></svg>
