<svg xmlns="http://www.w3.org/2000/svg" viewBox="0 0 68 68"><circle cx="34" cy="34" r="34" fill="#2ba3ef"/><path d="M28.29 46.5c11.6 0 17.95-9.62 17.95-17.95 0-.27 0-.54-.01-.81 1.23-.89 2.3-2 3.15-3.27-1.13.5-2.35.84-3.63 1a6.36 6.36 0 0 0 2.78-3.49c-1.22.73-2.57 1.24-4.01 1.53a6.262 6.262 0 0 0-4.6-1.99c-3.48 0-6.31 2.83-6.31 6.31 0 .49.06.97.16 1.44-5.24-.27-9.89-2.78-13-6.59a6.326 6.326 0 0 0 1.95 8.42c-1.03-.04-2-.32-2.87-.79v.09c0 3.05 2.18 5.61 5.06 6.19-.53.15-1.08.22-1.66.22-.41 0-.8-.04-1.18-.11.8 2.51 3.14 4.33 5.89 4.38-2.16 1.7-4.88 2.71-7.84 2.71-.5 0-1.01-.02-1.5-.09 2.8 1.75 6.12 2.8 9.67 2.8" fill="#fff"/></svg>
